Patient4_TMGait_0pt6_02_left_07_EMG.mot
version=1
nRows=20
nColumns=33
inDegrees=no
endheader
time	1LAddLong	2LGlutMax	3LGlutMed	4LIliopsoas	5LSemiMemb	6LBicFemLong	7LRecFem	8LVastMed	9LVastLat	10LGasMed	11LTibAnt	12lTibPost	13LPeroneusLong	14LSol	15LExtDigLong	16LFlexDigLong	17RAddLong	18RGlutMax	19RGlutMed	20RIliopsoas	21RSemiMemb	22RBicFemLong	23RRecFem	24RVastMed	25RVastLat	26RGasMed	27RTibAnt	28RTibPost	29RPeroneusLong	30RSol	31RExtDigLong	32RFlexDigLong
8.44	0.000916	0.53421	-0.072021	0.014954	-0.010223	-0.03067	-0.008087	0.066223	-0.35599	-0.000153	-0.028839	0.001373	0.004578	-0.068665	0.05188	-0.005188	0.031433	-0.27985	-0.11093	0.023956	-0.10956	-0.071411	-0.29205	0.014496	0.068817	-0.014648	-0.010376	-0.010834	-0.17716	-0.087128	-0.007629	-0.009155
8.441	0.002136	0.53802	-0.065918	0.009613	-0.00473	-0.037689	-0.006256	0.000763	-0.28091	-0.0177	-0.037231	-0.001373	0.054016	0.032806	0.14389	0.005035	0.018768	-0.33569	0.24063	0.007324	-0.2095	-0.031586	-0.37354	0.13031	0.042114	-0.023956	0.075073	-0.00885	-0.2739	0.023651	-0.002289	-0.011749
8.442	0.00351	0.58487	-0.066376	0.010223	0.000153	-0.02655	-0.009308	0.016632	-0.22293	-0.009766	-0.023499	0.001526	0.060272	0.0383	0.32196	-0.003662	-0.000916	-0.31693	0.2594	-0.005798	0.00824	-0.12299	-0.32211	0.085754	0.039978	0.004425	0.029907	-0.016632	-0.26489	0.069885	-0.002899	-0.002899
8.443	0.004425	0.62698	-0.061951	0.002747	0.003357	-0.063171	-0.006866	0.005646	-0.16937	-0.001678	0.087433	0.001221	0.041504	0.039063	0.081635	-0.005188	0.007019	-0.25971	0.36209	0.042877	0.13931	-0.13306	-0.27496	0.039215	0.065918	0.016632	-0.044708	-0.020905	-0.24323	-0.000458	-0.002136	-0.012207
8.444	0.002289	0.6282	-0.051117	-0.000305	-0.002899	-0.043945	0.003967	0.009613	-0.10895	-0.035706	0.062714	0.001984	0.076294	0.026703	0.048065	-0.008392	0.009155	-0.17899	0.11353	0.039673	-0.050964	-0.046844	-0.13809	0.045471	0.050049	0.014801	-0.043945	-0.041351	-0.36545	0.14038	-0.003052	-0.001526
8.445	0.008392	0.62546	-0.012512	0.002899	-0.00473	-0.049438	-0.014954	0.00946	-0.049286	-0.011139	0.046844	0.002441	0.040131	0.033722	0.10315	-0.000458	-0.022278	-0.21759	0.16022	0.0737	-0.30975	0.14267	-0.11154	0.11475	0.017853	-0.000458	-0.059662	-0.010071	-0.024872	0.010681	-0.000458	-0.001984
8.446	0.01297	0.62973	-0.048523	0.011902	-0.00061	-0.051117	-0.016785	0.016174	0.006409	-0.010834	0.044098	0.005646	0.028992	0.018158	0.079041	0.000305	-0.032043	-0.1918	-0.15762	0.057831	-0.32425	0.20157	-0.13977	0.13489	0.088043	-0.004425	-0.05188	-0.003967	0.24689	-0.11002	-0.001984	0.000458
8.447	0.007477	0.64026	-0.051117	0.001373	-0.004578	-0.057373	-0.029755	0.012512	0.052795	0.001068	-0.001373	0.000916	0.083923	-0.11688	0.14771	0.002136	-0.028534	-0.14069	-0.3186	0.005493	-0.039215	0.045929	-0.038147	0.09964	0.089722	-0.012665	-0.05249	0.005798	0.21866	-0.25116	0.001678	-0.007629
8.448	0.012207	0.70068	-0.031433	0.011902	0.006409	-0.067596	-0.021515	0.005188	0.098572	0.007172	-0.064545	0.001984	0.091248	-0.096588	0.30411	-0.005798	0.002441	-0.11932	-0.25772	0.040741	-0.031891	-0.043488	-0.00412	0.052032	0.024719	-0.046539	-0.027161	0.067902	0.20615	-0.44754	-0.001526	-0.005188
8.449	0.010223	0.72189	-0.058899	0.000305	-0.005798	-0.072937	-0.014801	0.009003	0.14557	-0.014038	-0.024414	-0.001831	0.10239	-0.010529	0.20996	0.004272	-0.016022	-0.045471	-0.2034	0.047913	-0.006866	-0.1239	0.011749	0.063019	0.04425	-0.033112	0.001526	0.037384	0.29907	-0.42191	0.001984	-0.013428
8.45	0.014496	0.74249	-0.070953	0.002136	-0.010681	-0.076294	-0.020294	0.014648	0.17761	-0.025024	-0.023651	-0.00412	0.11002	-0.081482	-0.025787	0.003052	-0.027161	0.009613	-0.38544	-0.022888	0.30655	-0.099792	-0.009918	0.056305	0.084381	-0.012207	0.060577	-0.023193	0.050964	-0.10696	0.000305	-0.006409
8.451	0.010071	0.74936	-0.082245	0.003662	-0.016785	-0.10284	-0.026398	0.016785	0.21942	-0.003357	0.03479	0.000916	0.10101	-0.10315	-0.17334	-0.001831	-0.016479	0.041656	-0.30045	-0.043335	0.28931	-0.016174	0.067902	-0.072174	0.14358	-0.024109	0.036926	-0.33875	0.098877	0.18906	-0.000458	-0.006866
8.452	0.01297	0.74539	-0.10483	0.002594	-0.014343	-0.11459	-0.032654	0.009308	0.2449	-0.018005	0.065918	-0.001068	0.09964	-0.15198	0.16403	0.007629	0.001526	0.014038	-0.37109	-0.037537	0.19714	0.041656	0.14465	-0.09491	0.1503	-0.033569	0.016174	0.028992	0.093231	0.19684	0.004272	-0.015717
8.453	0.016785	0.70435	-0.096436	-0.000458	-0.014038	-0.10651	-0.031281	0.016022	0.26627	-0.035858	0.029144	0.006104	0.1471	-0.11856	-0.36926	0.010376	0.023041	0.06134	-0.34225	-0.055695	0.11139	-0.001373	0.17059	-0.11887	0.17487	-0.040894	0.12344	0.15076	-0.050812	0.25055	0.003815	-0.010071
8.454	0.015411	0.70862	-0.06958	0.010071	-0.007477	-0.10529	-0.034027	0.014496	0.2832	-0.019836	-0.009155	0.003357	0.081329	-0.085297	-0.35797	0.001373	0.031586	0.10071	0.075378	-0.08728	0.061951	0.002899	0.13245	-0.035706	0.68146	-0.033264	0.20813	0.068512	-0.11215	0.28427	-0.001068	-0.006714
8.455	0.012054	0.71793	-0.028687	0.005798	-0.005951	-0.10284	-0.023041	0.005646	0.29831	0.003204	-0.014954	0.006256	0.040131	-0.04303	0.048981	0.005951	-0.018768	0.12711	0.36987	-0.049438	0.045013	0.044861	0.015259	0.049896	0.73532	-0.03067	0.17838	0.068207	0.043182	0.17746	-0.000458	-0.004272
8.456	0.011292	0.70755	-0.013275	-0.021362	-0.001831	-0.11063	-0.038605	0.009155	0.31311	0.00473	-0.02533	0.00412	0.026703	-0.07431	-0.008545	0.000153	-0.025635	0.13718	0.16312	-0.000458	-0.006409	0.032959	-0.033417	-0.032654	0.43762	-0.029297	0.19134	0.04837	0.2356	0.068817	-0.001373	-0.012817
8.457	0.009155	0.62393	-0.020447	0.003052	-0.006714	-0.10727	-0.005188	0.012207	0.29877	-0.010681	-0.033569	0.006104	0.015411	-0.08667	-0.028229	-0.000305	0.007935	0.1207	0.17716	0.018311	0.092621	0.01709	0.05127	-0.10361	-0.3569	-0.033112	-0.13626	0.000153	-0.23911	0.063782	-0.00061	-0.000458
8.458	0.00885	0.60425	-0.018921	0.007477	-0.012054	-0.098114	0.001373	0.01297	0.32074	-0.023193	-0.006256	0.003204	0.014801	-0.090332	-0.11276	-0.018158	0.029755	0.091095	0.12405	0.034027	0.11002	0.050354	0.11429	-0.13092	-0.32349	-0.01709	-0.6871	-0.006714	-0.8017	-0.015717	0.001221	-0.012512
8.459	0.015106	0.60288	-0.015411	0.010834	-0.011444	-0.073547	-0.00824	0.012054	0.31204	-0.035706	0.00885	0.005188	0.036774	-0.093689	-0.075836	-0.014191	0.002747	0.12817	0.019073	0.068817	0.056305	0.034637	-0.15518	0.028229	-0.17303	-0.023041	-0.69473	0.002899	-0.85983	-0.30395	0.000305	-0.015717
